Land_normalized_Motion_pl16
version=1
nRows=25
nColumns=43
inDegrees=yes
endheader
time		pelvis_tilt		pelvis_list		pelvis_rotation		pelvis_tx		pelvis_ty		pelvis_tz		hip_flexion_r		hip_adduction_r		hip_rotation_r		knee_angle_r		ankle_angle_r		subtalar_angle_r		mtp_angle_r		hip_flexion_l		hip_adduction_l		hip_rotation_l		knee_angle_l		ankle_angle_l		subtalar_angle_l		mtp_angle_l		lumbar_extension		lumbar_bending		lumbar_rotation		neck_flexion		neck_lateral_bending		neck_rotation		arm_flex_r		arm_add_r		arm_rot_r		elbow_flex_r		pro_sup_r		wrist_flex_r		wrist_dev_r		hand_finger_flex_r		arm_flex_l		arm_add_l		arm_rot_l		elbow_flex_l		pro_sup_l		wrist_flex_l		wrist_dev_l		hand_finger_flex_l		
1.062500		0.338189		1.714170		85.358039		-0.015883		1.064437		0.646760		28.481374		-1.634538		-6.128762		-29.512370		-27.253625		5.334355		20.294425		25.446407		-8.461947		-14.987666		-28.983817		-25.699473		11.781788		25.564366		-28.556670		0.884955		0.785890		-36.371354		-6.122336		2.344767		-67.152290		-13.993756		-32.873850		61.956044		109.042953		-1.132659		0.018569		17.350535		-79.489704		-9.328741		-24.021466		67.306107		99.464119		-8.630661		-11.142971		17.263040		
1.065808		0.276209		1.989935		85.307624		-0.016216		1.050071		0.641652		28.716854		-1.767214		-5.815544		-30.794965		-27.191528		5.156154		20.308519		25.588646		-8.429728		-14.836590		-30.038977		-25.509433		11.863621		25.607957		-28.868457		0.834879		0.728581		-36.119882		-6.358094		2.377506		-66.714863		-13.824316		-33.228565		62.279614		109.130278		-1.703823		0.072896		17.407873		-79.116399		-8.824029		-24.748247		66.987987		98.985713		-8.901843		-11.037754		17.162266		
1.069116		0.250193		2.297458		85.292624		-0.016595		1.035680		0.636402		28.937697		-1.880860		-5.547804		-32.097374		-27.349670		5.059025		20.261441		25.697990		-8.422608		-14.673437		-31.071685		-25.538732		11.945641		25.633207		-29.199601		0.825461		0.735870		-35.994190		-6.503031		2.420683		-66.227475		-13.757841		-33.439058		62.471780		109.226531		-2.135624		0.136163		17.458053		-78.658815		-8.556696		-25.294371		66.614279		98.615318		-9.160964		-10.945716		17.074809		
1.072424		0.210715		2.537005		85.240831		-0.016834		1.021025		0.631675		29.329674		-1.953507		-5.181273		-33.439892		-27.668339		4.898818		20.201182		25.969619		-8.405283		-14.414088		-32.133215		-25.808150		12.067641		25.658764		-29.571408		0.770837		0.681192		-35.410186		-6.734570		2.477273		-65.594847		-13.596112		-33.728781		62.800738		109.388222		-2.760073		0.209494		17.503671		-78.011588		-8.060224		-26.048691		66.221290		98.029354		-9.630603		-10.905770		16.936136		
1.075732		0.206216		2.723738		85.213919		-0.017130		1.006246		0.626699		29.805185		-2.001361		-4.932282		-34.814399		-28.015618		4.785469		20.759591		26.321167		-8.420748		-14.125049		-33.204351		-26.164068		12.055408		25.801598		-29.813653		0.781526		0.730334		-35.329941		-6.829173		2.504611		-64.928766		-13.573887		-33.771440		62.926672		109.642665		-3.385543		0.317155		18.011268		-77.341258		-8.066056		-26.241944		65.794329		97.151979		-10.163629		-10.919845		16.903868		
1.079040		0.169264		2.649242		85.155937		-0.017430		0.990804		0.622443		30.678095		-1.983278		-4.487621		-36.252664		-28.149532		4.524802		22.312046		27.110691		-8.406478		-13.631644		-34.377877		-26.675369		12.000571		26.164196		-29.903352		0.773766		0.707511		-34.666153		-7.041970		2.546820		-64.122388		-13.515805		-33.882597		63.186933		110.121739		-4.627532		0.476474		19.252054		-76.505311		-7.933200		-26.384343		65.243670		95.320177		-11.235105		-11.039292		16.920583		
1.082348		0.219295		2.935715		85.098644		-0.017670		0.976113		0.617952		31.092004		-1.897336		-4.102734		-37.729199		-27.203918		4.586617		23.110786		27.446773		-8.461629		-13.196450		-35.529605		-26.626315		12.098894		26.277740		-30.400620		0.799357		0.742778		-34.049253		-7.128187		2.586000		-63.229327		-13.551952		-33.959079		63.346534		110.166422		-4.923080		0.436327		19.304490		-75.488299		-7.718455		-26.938334		64.741422		94.963525		-11.677860		-10.938961		16.818231		
1.085657		0.120689		2.674634		85.231847		-0.018414		0.960039		0.613720		32.226201		-2.048005		-3.794247		-39.517981		-25.980652		4.850545		33.009682		28.590256		-8.298458		-12.487832		-37.100475		-25.494323		12.250881		28.126982		-30.230403		0.840498		0.601131		-33.685008		-7.182813		2.615318		-62.415162		-13.622334		-33.882676		63.533349		110.472470		-5.956070		0.286326		20.799235		-74.627778		-7.940289		-26.659916		64.284041		92.781314		-12.868158		-11.100375		17.103468		
1.088965		0.130289		2.928327		85.152895		-0.018697		0.945141		0.609437		32.679371		-1.955081		-3.313497		-41.475813		-22.165142		5.642537		34.494050		29.034129		-8.256129		-11.899413		-38.870356		-22.310216		12.283377		28.579045		-30.708995		0.805782		0.710140		-33.069735		-7.161810		2.744251		-61.403484		-13.733651		-33.836427		63.623581		110.480731		-6.052819		0.157669		20.864122		-73.468738		-7.894955		-27.156218		63.865818		92.515072		-13.124470		-10.941956		17.057402		
1.092273		0.083717		2.972098		85.164903		-0.019130		0.929773		0.605328		33.355072		-1.925086		-2.841499		-43.720170		-17.006495		6.818252		36.174005		29.737818		-8.119770		-11.235584		-40.932579		-17.894976		12.631142		29.174565		-30.958091		0.768473		0.716793		-32.450000		-7.055003		2.820350		-60.342791		-13.862108		-33.770198		63.702164		110.539185		-6.126321		-0.061860		20.975028		-72.261785		-7.934575		-27.528338		63.411214		91.955758		-13.399871		-10.795415		16.966861		
1.095581		0.071361		3.048205		85.179066		-0.019382		0.914322		0.601451		33.960268		-1.787092		-2.414444		-46.228161		-10.748474		7.536458		37.053915		30.363637		-7.982077		-10.581639		-43.226427		-12.368894		12.742119		29.632475		-31.287637		0.738300		0.723912		-31.708579		-6.979733		2.901562		-59.223346		-13.993144		-33.688352		63.857126		110.583774		-6.116519		-0.322073		21.081943		-71.092464		-8.009560		-27.881597		63.156369		91.398767		-13.690413		-10.743903		16.850156		
1.098889		0.035175		3.023973		85.243755		-0.019681		0.898812		0.597529		34.550408		-1.743975		-2.187419		-48.728007		-3.851148		8.978899		35.871309		31.075485		-7.845095		-10.016729		-45.785615		-5.664420		13.829449		30.247403		-31.508205		0.707463		0.661740		-30.992231		-6.777716		3.017694		-57.968674		-14.175035		-33.543665		63.887999		110.689652		-6.013275		-0.694105		21.322590		-69.787235		-8.202520		-28.039722		62.723898		90.588114		-14.092957		-10.736827		16.724377		
1.102197		0.033374		3.105937		85.235060		-0.019766		0.883664		0.593844		35.063437		-1.556832		-1.972180		-51.454554		3.671938		10.001430		26.537128		31.634921		-7.705862		-9.490741		-48.386034		1.073102		14.232554		30.995740		-31.902910		0.659215		0.702724		-30.147311		-6.595898		3.086971		-56.611490		-14.334162		-33.436462		63.907936		110.853917		-5.987568		-1.065736		21.750637		-68.439639		-8.489859		-28.060368		62.400719		89.717214		-14.778241		-10.897934		16.867511		
1.105505		-0.057711		3.085448		85.225540		-0.019971		0.868593		0.590618		35.816908		-1.460494		-1.812476		-54.106416		9.367740		10.079325		24.823182		32.434224		-7.464155		-9.069138		-51.118703		7.232273		14.226562		31.082659		-32.239241		0.508057		0.637600		-29.307345		-6.343055		3.309426		-55.139387		-14.641734		-33.113556		63.978426		110.915024		-5.868580		-1.306363		21.788549		-66.962750		-8.618800		-28.387010		62.121259		89.627913		-15.171142		-10.963883		16.851067		
1.108813		-0.101655		3.027406		85.178868		-0.019937		0.853764		0.588008		36.810290		-1.182232		-1.519921		-56.828131		14.052899		9.440653		23.080243		33.553015		-7.331689		-8.639511		-54.128765		12.311637		14.181482		30.888052		-32.634168		0.372019		0.652960		-28.324618		-6.130816		3.448698		-53.561247		-14.899642		-32.818477		64.099453		111.015449		-5.789303		-1.615487		21.748928		-65.419722		-8.823096		-28.673997		62.011643		89.616731		-15.592972		-11.122566		16.853929		
1.112121		-0.199200		2.562854		85.079856		-0.019862		0.838844		0.586158		38.544648		-0.840572		-1.127219		-59.660011		17.390563		8.312148		21.575139		35.439209		-7.183698		-8.152596		-57.375654		16.289866		13.774178		30.563509		-32.669381		0.177942		0.680793		-27.399328		-5.862202		3.664007		-51.747650		-15.218700		-32.407636		64.051295		111.210800		-5.805250		-1.878058		21.663529		-63.667678		-9.092091		-28.878710		61.740910		89.650377		-16.063044		-11.246939		16.881147		
1.115429		-0.275119		1.903629		85.034243		-0.019870		0.823811		0.585196		40.923325		-0.362316		-0.514834		-62.843858		19.729510		7.013379		19.103083		38.003047		-7.058922		-7.537207		-60.954604		18.588894		12.983833		29.734668		-32.620685		0.049670		0.653690		-26.290557		-5.593207		3.742398		-49.869658		-15.521856		-32.027240		64.198822		111.415678		-5.975675		-2.137244		21.547794		-61.853044		-9.387708		-29.016517		61.624191		89.730962		-16.517737		-11.331617		17.173005		
1.118737		-0.410061		1.268972		84.924843		-0.019937		0.809621		0.584883		43.596842		0.083264		0.143240		-66.134607		20.631829		5.604811		18.393065		40.844795		-6.871863		-6.894907		-64.696455		19.882787		12.035002		29.329020		-32.715785		-0.158192		0.680824		-25.038566		-5.366790		3.944206		-47.782798		-15.825124		-31.596739		64.271419		111.601429		-6.251064		-2.250372		21.430754		-59.804732		-9.731400		-29.138827		61.486493		89.771798		-16.803912		-11.326274		17.301331		
1.122045		-0.522954		0.229409		84.854371		-0.020015		0.794969		0.585107		47.014777		0.617347		0.822921		-69.658340		20.731514		4.170587		17.898697		44.470305		-6.714639		-6.117027		-68.615800		19.805149		11.014609		28.924778		-32.403431		-0.298588		0.723455		-23.839467		-5.154953		4.022341		-45.643731		-16.148235		-31.083016		64.308104		111.811283		-6.692772		-2.327044		21.312909		-57.709688		-10.143325		-29.204946		61.375400		89.885307		-16.999752		-11.297098		17.550588		
1.125354		-0.630641		-0.738930		84.786249		-0.020124		0.780678		0.585514		50.538726		1.116156		1.402491		-73.289475		20.124198		2.932387		17.582737		48.184382		-6.539020		-5.345878		-72.547579		18.936396		9.936761		28.579958		-32.211153		-0.430324		0.727960		-22.532138		-4.938445		4.057854		-43.488514		-16.447325		-30.579749		64.523221		111.982262		-7.261021		-2.364767		21.219448		-55.587014		-10.550654		-29.256839		61.341448		90.029576		-17.128578		-11.253571		17.894072		
1.128662		-0.716078		-1.687737		84.760905		-0.020268		0.766841		0.585706		54.031331		1.552114		1.805717		-76.837231		19.218183		1.805831		17.459819		51.864089		-6.311630		-4.570520		-76.294853		17.587119		8.675866		28.271990		-32.007145		-0.525654		0.781768		-21.375731		-4.749628		3.981398		-41.257261		-16.785534		-29.954878		64.544258		112.126707		-7.969503		-2.275917		21.190386		-53.346097		-11.036145		-29.267728		61.267717		90.277146		-17.211194		-11.189945		18.418782		
1.131970		-0.777693		-2.269579		84.720041		-0.020340		0.753862		0.585564		57.046354		1.923182		2.063344		-80.285579		18.168010		0.853687		17.537853		55.041175		-6.086840		-3.909233		-79.846525		16.059438		7.401370		28.083077		-32.217449		-0.637528		0.833665		-20.095793		-4.553076		3.854043		-39.047734		-17.105575		-29.335688		64.738445		112.213026		-8.745088		-2.171809		21.223468		-51.089160		-11.501264		-29.299159		61.303218		90.571126		-17.289517		-11.163926		18.993186		
1.135278		-0.806827		-2.365408		84.651585		-0.020255		0.742009		0.584979		59.378544		2.230488		2.182302		-83.576878		17.185177		0.141402		17.772245		57.491880		-5.918450		-3.408300		-83.140406		14.617688		6.266927		28.035687		-32.975438		-0.785067		0.896531		-18.691653		-4.346228		3.653255		-36.856632		-17.421714		-28.718243		65.107784		112.269991		-9.454832		-2.088351		21.289487		-48.830745		-11.971844		-29.337210		61.498483		90.876820		-17.350196		-11.184041		19.483276		
1.138586		-0.828768		-2.269286		84.593888		-0.020182		0.731119		0.583907		61.253754		2.452272		2.190444		-86.576196		16.251768		-0.625551		19.281363		59.479921		-5.722162		-3.005320		-86.115258		13.254598		4.899327		28.406637		-33.915772		-0.942934		0.994188		-17.455294		-4.135607		3.438140		-34.548109		-17.846530		-27.790979		65.233231		112.031608		-10.787192		-1.846679		22.166648		-46.383473		-12.386750		-29.520490		61.626374		91.656288		-17.557686		-11.148538		20.731483		
1.141894		-0.835700		-1.707564		84.471343		-0.019890		0.721407		0.582621		62.460378		2.676336		2.225305		-89.398640		15.508504		-1.010763		20.790070		60.737140		-5.655643		-2.743236		-88.879702		12.291496		4.204432		28.888667		-35.430495		-1.182831		1.129080		-15.972864		-3.908790		3.196216		-32.243136		-18.250037		-26.964904		65.548041		111.846384		-11.783393		-1.731103		23.165847		-43.984310		-12.854405		-29.598124		62.028748		92.226775		-17.786259		-11.138987		21.746580		
